<svg xmlns="http://www.w3.org/2000/svg" width="1450" height="310" viewBox="0 0 1450 310" role="img" aria-labelledby="title desc">
<title id="title">Scrap Request to Inventory Writeoff workflow</title><desc id="desc">Primary workflow and common checkpoints for Scrap Request to Inventory Writeoff.</desc>
<defs><filter id="shadow" x="-20%" y="-20%" width="140%" height="140%"><feDropShadow dx="0" dy="8" stdDeviation="10" flood-color="#0f172a" flood-opacity="0.10"/></filter><marker id="arrow" markerWidth="10" markerHeight="10" refX="8" refY="3" orient="auto" markerUnits="strokeWidth"><path d="M0,0 L0,6 L9,3 z" fill="#475569"/></marker></defs>
<rect width="100%" height="100%" rx="24" fill="#f8fafc"/>
<text x="50" y="42" font-family="Inter, Arial, sans-serif" font-size="26" font-weight="800" fill="#0f172a">Scrap Request to Inventory Writeoff</text>
<text x="50" y="68" font-family="Inter, Arial, sans-serif" font-size="14" font-weight="700" fill="#0891b2">Inventory &amp; Logistics · primary workflow</text>
<rect x="50" y="80" width="190" height="66" rx="16" fill="#ffffff" stroke="#cbd5e1" filter="url(#shadow)"/>
<circle cx="76" cy="113" r="15" fill="#0891b2" opacity="0.12"/>
<text x="76" y="118" text-anchor="middle" font-family="Inter, Arial, sans-serif" font-size="14" font-weight="800" fill="#0891b2">1</text>
<text x="100" y="107" font-family="Inter, Arial, sans-serif" font-size="13" font-weight="700" fill="#0f172a">Scrap Request</text>
<line x1="248" y1="113.0" x2="272" y2="113.0" stroke="#475569" stroke-width="2" marker-end="url(#arrow)"/>
<rect x="282" y="80" width="190" height="66" rx="16" fill="#ffffff" stroke="#cbd5e1" filter="url(#shadow)"/>
<circle cx="308" cy="113" r="15" fill="#0891b2" opacity="0.12"/>
<text x="308" y="118" text-anchor="middle" font-family="Inter, Arial, sans-serif" font-size="14" font-weight="800" fill="#0891b2">2</text>
<text x="332" y="99" font-family="Inter, Arial, sans-serif" font-size="13" font-weight="700" fill="#0f172a">Validate material</text>
<text x="332" y="117" font-family="Inter, Arial, sans-serif" font-size="13" font-weight="700" fill="#0f172a">and location</text>
<line x1="480" y1="113.0" x2="504" y2="113.0" stroke="#475569" stroke-width="2" marker-end="url(#arrow)"/>
<rect x="514" y="80" width="190" height="66" rx="16" fill="#ffffff" stroke="#cbd5e1" filter="url(#shadow)"/>
<circle cx="540" cy="113" r="15" fill="#0891b2" opacity="0.12"/>
<text x="540" y="118" text-anchor="middle" font-family="Inter, Arial, sans-serif" font-size="14" font-weight="800" fill="#0891b2">3</text>
<text x="564" y="107" font-family="Inter, Arial, sans-serif" font-size="13" font-weight="700" fill="#0f172a">Plan movement</text>
<line x1="712" y1="113.0" x2="736" y2="113.0" stroke="#475569" stroke-width="2" marker-end="url(#arrow)"/>
<rect x="746" y="80" width="190" height="66" rx="16" fill="#ffffff" stroke="#cbd5e1" filter="url(#shadow)"/>
<circle cx="772" cy="113" r="15" fill="#0891b2" opacity="0.12"/>
<text x="772" y="118" text-anchor="middle" font-family="Inter, Arial, sans-serif" font-size="14" font-weight="800" fill="#0891b2">4</text>
<text x="796" y="91" font-family="Inter, Arial, sans-serif" font-size="13" font-weight="700" fill="#0f172a">Execute</text>
<text x="796" y="109" font-family="Inter, Arial, sans-serif" font-size="13" font-weight="700" fill="#0f172a">warehouse/logistics</text>
<text x="796" y="127" font-family="Inter, Arial, sans-serif" font-size="13" font-weight="700" fill="#0f172a">task</text>
<line x1="944" y1="113.0" x2="968" y2="113.0" stroke="#475569" stroke-width="2" marker-end="url(#arrow)"/>
<rect x="978" y="80" width="190" height="66" rx="16" fill="#ffffff" stroke="#cbd5e1" filter="url(#shadow)"/>
<circle cx="1004" cy="113" r="15" fill="#0891b2" opacity="0.12"/>
<text x="1004" y="118" text-anchor="middle" font-family="Inter, Arial, sans-serif" font-size="14" font-weight="800" fill="#0891b2">5</text>
<text x="1028" y="99" font-family="Inter, Arial, sans-serif" font-size="13" font-weight="700" fill="#0f172a">Post inventory</text>
<text x="1028" y="117" font-family="Inter, Arial, sans-serif" font-size="13" font-weight="700" fill="#0f172a">impact</text>
<line x1="1176" y1="113.0" x2="1200" y2="113.0" stroke="#475569" stroke-width="2" marker-end="url(#arrow)"/>
<rect x="1210" y="80" width="190" height="66" rx="16" fill="#ffffff" stroke="#cbd5e1" filter="url(#shadow)"/>
<circle cx="1236" cy="113" r="15" fill="#0891b2" opacity="0.12"/>
<text x="1236" y="118" text-anchor="middle" font-family="Inter, Arial, sans-serif" font-size="14" font-weight="800" fill="#0891b2">6</text>
<text x="1260" y="107" font-family="Inter, Arial, sans-serif" font-size="13" font-weight="700" fill="#0f172a">Inventory Writeoff</text>
<text x="50" y="200" font-family="Inter, Arial, sans-serif" font-size="15" font-weight="800" fill="#334155">Common workflow controls and variants</text>
<rect x="50" y="218" width="160" height="40" rx="20" fill="#ffffff" stroke="#dbeafe"/>
<text x="130.0" y="244" text-anchor="middle" font-family="Inter, Arial, sans-serif" font-size="12" font-weight="700" fill="#334155">Approval loop</text>
<rect x="228" y="218" width="160" height="40" rx="20" fill="#ffffff" stroke="#dbeafe"/>
<text x="308.0" y="244" text-anchor="middle" font-family="Inter, Arial, sans-serif" font-size="12" font-weight="700" fill="#334155">Exception route</text>
<rect x="406" y="218" width="160" height="40" rx="20" fill="#ffffff" stroke="#dbeafe"/>
<text x="486.0" y="244" text-anchor="middle" font-family="Inter, Arial, sans-serif" font-size="12" font-weight="700" fill="#334155">Reversal/correction</text>
<rect x="584" y="218" width="160" height="40" rx="20" fill="#ffffff" stroke="#dbeafe"/>
<text x="664.0" y="244" text-anchor="middle" font-family="Inter, Arial, sans-serif" font-size="12" font-weight="700" fill="#334155">Audit evidence</text>
<rect x="762" y="218" width="160" height="40" rx="20" fill="#ffffff" stroke="#dbeafe"/>
<text x="842.0" y="244" text-anchor="middle" font-family="Inter, Arial, sans-serif" font-size="12" font-weight="700" fill="#334155">Closure archive</text>
</svg>